<svg xmlns="http://www.w3.org/2000/svg" viewBox="0 0 572 718" fill="none" stroke="#2B2B2B" stroke-width="20" stroke-linecap="round" stroke-linejoin="round">
  <rect x="116" y="12" width="340" height="46" rx="16"/>
  <path d="M116 58 L40 170 H532 L456 58"/>
  <rect x="40" y="170" width="492" height="536" rx="26"/>
  <line x1="40" y1="300" x2="532" y2="300"/>
  <ellipse cx="176" cy="114" rx="78" ry="34"/>
  <circle cx="176" cy="114" r="15"/>
  <path d="M176 84 v12 M176 132 v12 M122 114 h24 M206 114 h24"/>
  <ellipse cx="396" cy="114" rx="78" ry="34"/>
  <circle cx="396" cy="114" r="15"/>
  <path d="M396 84 v12 M396 132 v12 M342 114 h24 M426 114 h24"/>
  <circle cx="92" cy="246" r="28"/>
  <circle cx="170" cy="246" r="28"/>
  <rect x="226" y="224" width="120" height="44" rx="12"/>
  <circle cx="402" cy="246" r="28"/>
  <circle cx="480" cy="246" r="28"/>
  <rect x="96" y="350" width="380" height="320" rx="24"/>
  <line x1="176" y1="396" x2="396" y2="396"/>
  <path d="M250 474 L298 522 M268 506 L316 554"/>
</svg>
